<svg width="49" height="139" viewBox="0 0 49 139" fill="none" xmlns="http://www.w3.org/2000/svg">
<path d="M22.3 41C31.1366 41 38.3 33.165 38.3 23.5C38.3 13.835 31.1366 6 22.3 6C13.4634 6 6.3 13.835 6.3 23.5C6.3 33.165 13.4634 41 22.3 41Z" fill="#18A0FB"/>
<path d="M27.4902 34.1759C32.2734 31.1886 36.27 27.2169 38.6007 23.1345C40.9315 19.0521 41.4055 15.1935 39.9184 12.4074C39.8122 12.2084 39.8565 11.9263 40.0415 11.6231C40.2266 11.3199 40.5373 11.0205 40.9052 10.7907C41.2732 10.5609 41.6682 10.4195 42.0035 10.3978C42.3388 10.376 42.5868 10.4756 42.693 10.6746C44.1801 13.4606 43.4138 17.5018 40.5627 21.9091C37.7116 26.3165 33.0093 30.729 27.4902 34.1759V34.1759Z" fill="#362F2F"/>
<path d="M35.7564 15.0068C33.632 11.0267 30.133 8.12255 26.0292 6.93313C21.9253 5.74371 17.5526 6.36647 13.8732 8.66441C10.1938 10.9624 7.50902 14.7473 6.40944 19.1865C5.30986 23.6257 5.88558 28.3555 8.00995 32.3356L35.7564 15.0068Z" fill="#18A0FB"/>
<path d="M28.5781 115H19.5781V46.75H28.5781V115Z" fill="#362F2F"/>
</svg>
