<?xml version="1.0" encoding="UTF-8"?>
<svg fill="none" viewBox="0 0 711 624" xmlns="http://www.w3.org/2000/svg">
<g clip-path="url(#a)">
<path d="m516.19 354.1v172.38l30.936 46.99 2.355 3.575h122.06l2.467-222.94h-157.82z" fill="#E6E6E6"/>
<path d="m516.19 354.1v172.38l30.936 46.99 1.899-219.36h-32.835z" fill="#000" opacity=".1"/>
<path d="m221.51 349.5v172.38l-30.936 46.99-2.354 3.573h-122.06l-2.4664-222.94h157.82z" fill="#E6E6E6"/>
<path d="m221.51 349.5v172.38l-30.936 46.99-1.899-219.37h32.835z" fill="#000" opacity=".1"/>
<path d="m711 346.05v10.342h-663.34v-14.94l61.649-29.878h547.44l54.251 34.476z" fill="#E6E6E6"/>
<path d="m711 346.05v10.342h-663.34v-14.94l663.34 4.598z" fill="#000" opacity=".1"/>
<path d="m142.6 397.76h-29.592l-12.33-8.044h55.485l-13.563 8.044z" fill="#3F3D56"/>
<path d="m142.6 431.09h-29.592l-12.33-8.044h55.485l-13.563 8.044z" fill="#3F3D56"/>
<path d="m142.6 478.21h-29.592l-12.33-8.045h55.485l-13.563 8.045z" fill="#3F3D56"/>
<path d="m142.6 525.32h-29.592l-12.33-8.045h55.485l-13.563 8.045z" fill="#3F3D56"/>
<path d="m595.1 402.36h29.592l12.329-8.045h-55.484l13.563 8.045z" fill="#3F3D56"/>
<path d="m595.1 435.69h29.592l12.329-8.044h-55.484l13.563 8.044z" fill="#3F3D56"/>
<path d="m595.1 482.8h29.592l12.329-8.044h-55.484l13.563 8.044z" fill="#3F3D56"/>
<path d="m595.1 529.92h29.592l12.329-8.044h-55.484l13.563 8.044z" fill="#3F3D56"/>
<path d="m615.25 112.24h-249.12c-1.237 0-2.463 0.227-3.606 0.668-1.143 0.442-2.182 1.088-3.056 1.904-0.875 0.815-1.569 1.783-2.043 2.849-0.473 1.065-0.717 2.207-0.717 3.36v156.41c0 1.153 0.244 2.295 0.717 3.36 0.474 1.066 1.168 2.034 2.043 2.849 0.874 0.815 1.913 1.462 3.056 1.903 1.143 0.442 2.369 0.669 3.606 0.669h94.568l-3.543 21.082s-20.248 10.026-6.011 10.321c14.236 0.294 81.306 0 81.306 0s12.971 0-7.593-10.616l-3.333-20.787h93.725c1.238 0 2.463-0.227 3.606-0.669 1.143-0.441 2.182-1.088 3.057-1.903s1.569-1.783 2.042-2.849c0.473-1.065 0.717-2.207 0.717-3.36v-156.41c0-1.153-0.244-2.295-0.717-3.36-0.473-1.066-1.167-2.034-2.042-2.849-0.875-0.816-1.914-1.462-3.057-1.904-1.143-0.441-2.368-0.668-3.606-0.668z" fill="#3F3D56"/>
<path d="m615.66 121.53h-249.93v130.33h249.93v-130.33z" fill="#F2F2F2"/>
<path d="m490.69 118.87c0.874 0 1.582-0.66 1.582-1.475 0-0.814-0.708-1.474-1.582-1.474-0.873 0-1.582 0.66-1.582 1.474 0 0.815 0.709 1.475 1.582 1.475z" fill="#F2F2F2"/>
<path d="m490.69 279.87c3.319 0 6.011-2.508 6.011-5.602s-2.692-5.603-6.011-5.603c-3.32 0-6.011 2.509-6.011 5.603s2.691 5.602 6.011 5.602z" fill="#F2F2F2"/>
<path d="m481.32 333.53v2.949h-170.2v-2.359l0.234-0.59 4.194-10.615h162.3l3.48 10.615z" fill="#3F3D56"/>
<path d="m546.82 330.65c-0.31 1.235-1.481 2.538-4.125 3.771-9.491 4.423-28.79-1.18-28.79-1.18s-14.869-2.359-14.869-8.551c0.418-0.266 0.853-0.507 1.303-0.722 3.991-1.968 17.221-6.823 40.68 0.206 1.728 0.505 3.272 1.448 4.459 2.723 0.526 0.482 0.922 1.074 1.155 1.726 0.234 0.652 0.298 1.347 0.187 2.027z" fill="#3F3D56"/>
<path d="m546.82 330.65c-11.617 4.148-21.972 4.458-32.599-2.421-4.018-2.769-8.884-4.263-13.882-4.261 3.991-1.968 17.221-6.823 40.68 0.206 1.728 0.505 3.272 1.448 4.459 2.723 0.526 0.482 0.922 1.074 1.155 1.726s0.297 1.347 0.187 2.027z" fill="#000" opacity=".1"/>
<path d="m532.26 328.23c2.272 0 4.113-0.528 4.113-1.18 0-0.651-1.841-1.179-4.113-1.179-2.271 0-4.113 0.528-4.113 1.179 0 0.652 1.842 1.18 4.113 1.18z" fill="#F2F2F2"/>
<path d="m481.32 333.53v2.949h-170.2v-2.359l0.234-0.59h169.97z" fill="#000" opacity=".1"/>
<path d="m94.637 3.6793e-4c-1.7274-0.13219-3.4571 0.22795-4.9599 1.0327-1.4756 0.94185-2.4057 2.5919-3.355 4.1273-3.6297 5.9407-8.5436 11.114-14.43 15.192-4.2879 2.9277-9.7392 6.5781-9.0056 11.976 0.387 1.7826 1.0936 3.4917 2.0901 5.0554 3.9555 7.4422 14.75 13.193 13.688 21.686 3.93-6.132-1.3267-9.1641 2.6033-15.296 1.8716-2.9202 5.1228-6.2166 7.9484-4.3827 0.9462 0.614 1.5674 1.7154 2.5525 2.2542 2.3506 1.2856 4.8513-1.1722 6.9321-2.9131 7.175-6.0032 17.378-4.4305 26.307-2.56 4.215 0.883 8.845 2.0415 11.337 5.7963 3.276 4.9368-3.113 10.269-4.727 15.85-0.132 0.4756-0.138 0.9739-0.018 1.4522 0.119 0.4784 0.362 0.9225 0.706 1.2945s0.78 0.6608 1.27 0.8416 1.02 0.2483 1.544 0.1968c2.679-0.2463 5.852-0.4482 6.011-1.5439 3.371 0.1118 7.501-0.244 8.945-3.5152 0.441-1.2943 0.675-2.6423 0.692-4.0003 0.53-5.4949 3.033-10.508 4.69-15.738 1.658-5.2299 2.379-11.359-0.419-15.996-0.998-1.5427-2.233-2.9413-3.665-4.1516-15.875-14.318-36.747-16.68-56.736-16.659z" fill="#2F2E41"/>
<path d="m82.116 69.796s3.4525 26.815-9.2067 28.96c-12.659 2.1449 11.508 38.614 11.508 38.614l57.542 6.436-13.81-42.905s-9.207-3.2175-3.452-24.67c5.754-21.452-42.581-6.4357-42.581-6.4357z" fill="#FFB8B8"/>
<path d="m47.016 530.48 4.6038 58.994h24.167l-6.9042-58.994h-21.866z" fill="#FFB8B8"/>
<path d="m224.24 418.93 3.452 49.34 26.47-10.726-10.359-40.759-19.563 2.145z" fill="#FFB8B8"/>
<path d="m29.753 305.23s1.1508 62.211 8.0559 82.591c6.905 20.379 5.7541 21.452 4.6033 24.67s-2.3016 1.072-2.3016 6.435-2.3017 90.1 0 97.608c2.3016 7.508-6.905 20.38 0 21.452 6.9049 1.073 39.128 0 40.279-6.435 1.1508-6.436-9.2067-8.581-4.6033-12.872 4.6033-4.29 11.508-92.244 11.508-92.244l16.111-61.139 29.922-32.179h63.296l19.564 70.793s-8.056 20.379-2.302 20.379 40.279 6.436 40.279-17.161c0-23.598-11.508-93.318-13.81-95.463-2.301-2.145 1.151-9.653-2.301-12.871-3.453-3.218-43.732-25.743-58.693-30.033-14.961-4.291-35.948-9.397-35.948-9.397l-113.66 45.866z" fill="#2F2E41"/>
<path d="m254.16 448.96s-17.262-5.364-25.318 10.726c-8.056 16.089-4.603 20.379-4.603 20.379s26.469 8.581 31.072 4.291c2.003-1.867 8.363-2.515 14.909-2.652 9.97-0.209 12.623-13.356 3.207-16.417-0.281-0.092-0.566-0.171-0.853-0.238-9.207-2.146-18.414-16.089-18.414-16.089z" fill="#2F2E41"/>
<path d="m108.01 87.494c19.067 0 34.525-14.407 34.525-32.178s-15.458-32.178-34.525-32.178c-19.068 0-34.525 14.407-34.525 32.178s15.457 32.178 34.525 32.178z" fill="#FFB8B8"/>
<path d="m63.127 112.16s56.391 10.726 70.201-6.436c13.81-17.162 19.564 48.267 19.564 48.267l6.905 68.648-10.357 37.541s-54.089 40.759-71.352 43.977-43.732 5.363-43.732 5.363 8.0559-119.06 8.0559-121.2 20.715-76.155 20.715-76.155z" fill="#18A0FB"/>
<path d="m80.277 92.047s-12.546-6.6989-15.999-0.2632-35.676 22.525-39.128 22.525 6.905 89.027 2.3017 99.753-26.469 89.026-13.81 95.462c12.659 6.436 3.4525-6.436 16.112 9.654 12.659 16.089 74.804 16.089 78.257 9.653 3.452-6.435-27.62-54.703-21.866-99.753 5.7542-45.049 14.961-107.26 6.905-115.84-8.0558-8.581-12.772-21.189-12.772-21.189z" fill="#2F2E41"/>
<path d="m121.82 99.292 1.603-5.1416s47.883 14.795 50.184 24.448c2.302 9.654 1.151 77.228-6.905 82.591s-19.564 13.944-11.508 26.816c8.056 12.871 17.262 26.815 24.167 27.887 6.905 1.073 19.565 8.581 16.112 16.09-3.452 7.508-44.882-6.436-44.882-6.436s-27.62-19.307-26.47-49.34c1.151-30.033-2.301-116.91-2.301-116.91z" fill="#2F2E41"/>
<path d="m162.1 225.86-27.62 48.268s-40.28 38.614-17.263 42.904c23.017 4.291 35.676-35.396 35.676-35.396l29.922-39.686-20.715-16.09z" fill="#FFB8B8"/>
<path d="m96.318 8.4196c-1.3916-0.09611-2.7855 0.15587-4.0376 0.7299-1.1322 0.77065-2.0653 1.7673-2.7311 2.9172-3.0696 4.3035-7.0709 7.9611-11.747 10.738-3.4905 2.0692-7.9281 4.6493-7.3309 8.4645 0.3242 1.2791 0.9012 2.4909 1.7014 3.5731 3.2311 5.3132 4.5174 11.463 3.6642 17.518l9.5976-13.002c1.5235-2.064 4.1701-4.3939 6.4703-3.0977 0.7702 0.434 1.2759 1.2124 2.0779 1.5932 1.9135 0.9087 3.9491-0.8284 5.6429-2.0589 5.8408-4.243 14.147-3.1314 21.415-1.8094 3.431 0.6241 7.2 1.4429 9.229 4.0968 3.371 4.4103-0.149 10.783 1.818 15.878 0.551-0.3593 1.018-0.8181 1.375-1.349s0.596-1.1233 0.703-1.7419c2.744 0.0791 6.106-0.1723 7.282-2.4844 0.357-0.9061 0.548-1.8621 0.563-2.8274 0.432-3.8838 2.469-7.427 3.818-11.123s1.936-8.0284-0.341-11.306c-0.833-1.1104-1.839-2.0993-2.984-2.9343-12.922-10.12-29.913-11.789-46.186-11.774z" fill="#2F2E41"/>
<path d="m162.1 114.31 10.722 2.653s24.954 59.558 19.199 100.32c-5.754 40.759-9.206 32.178-9.206 32.178s-9.207-19.307-29.922-15.017l9.207-120.13z" fill="#2F2E41"/>
<path d="m48.61 581.68c-2.7752 3.515-2.2188 8.539-4.677 12.254-2.1309 3.219-6.1468 4.907-8.8121 7.76-0.8505 0.948-1.6086 1.964-2.2656 3.038-2.4724 3.86-4.4821 8.807-2.047 12.687 1.9588 3.122 6.0762 4.342 9.8524 5.173 4.7728 1.052 9.7317 1.893 14.56 1.09 4.8279-0.804 9.5464-3.559 11.268-7.839 0.3383-1.076 0.7405-2.134 1.2047-3.169 2.6168-4.801 10.825-4.853 13.503-9.625 1.8742-3.34 0.1514-7.376-1.5707-10.786l-5.2597-10.415c-1.7455-3.456-8.8213-1.468-12.51-2.297-4.811-1.08-9.784-2.27-13.245 2.129z" fill="#2F2E41"/>
<path d="m10.189 247.31 48.335 69.719s29.922 35.397 39.128 19.307c9.2068-16.089-32.223-42.904-32.223-42.904l-31.072-53.631-24.167 7.509z" fill="#FFB8B8"/>
<path d="m34.356 116.45-9.2066-2.145s-18.413 5.363-23.017 27.888-1.1508 112.62 4.6033 113.7c5.7541 1.073 28.42-15.688 32.048-12.134 3.628 3.554-7.8804-14.681-4.4279-24.334 3.4525-9.654 0-102.97 0-102.97z" fill="#2F2E41"/>
<path d="m467.04 164.33h-29.744v6.674h29.744v-6.674z" fill="#18A0FB"/>
<path d="m570.04 164.33h-10.466v6.674h10.466v-6.674z" fill="#18A0FB"/>
<path d="m590.97 164.33h-10.465v6.674h10.465v-6.674z" fill="#18A0FB"/>
<path d="m548.56 164.33h-71.057v6.674h71.057v-6.674z" fill="#18A0FB"/>
<path d="m429.58 207.46h-29.745v6.674h29.745v-6.674z" fill="#18A0FB"/>
<path d="m532.58 207.46h-10.466v6.674h10.466v-6.674z" fill="#18A0FB"/>
<path d="m553.52 207.46h-10.466v6.674h10.466v-6.674z" fill="#18A0FB"/>
<path d="m511.1 207.46h-71.057v6.674h71.057v-6.674z" fill="#18A0FB"/>
<path d="m552.41 179.22h-29.745v6.674h29.745v-6.674z" fill="#18A0FB"/>
<path d="m592.62 179.22h-29.745v6.674h29.745v-6.674z" fill="#18A0FB"/>
<path d="m410.3 179.22h-10.466v6.674h10.466v-6.674z" fill="#18A0FB"/>
<path d="m431.23 179.22h-10.465v6.674h10.465v-6.674z" fill="#18A0FB"/>
<path d="m512.75 179.22h-71.056v6.674h71.056v-6.674z" fill="#18A0FB"/>
<path d="m490.72 193.6h-29.745v6.674h29.745v-6.674z" fill="#18A0FB"/>
<path d="m450.51 193.6h-29.744v6.674h29.744v-6.674z" fill="#18A0FB"/>
<path d="m410.3 193.6h-10.466v6.674h10.466v-6.674z" fill="#18A0FB"/>
<path d="m592.62 193.6h-10.466v6.674h10.466v-6.674z" fill="#18A0FB"/>
<path d="m571.69 193.6h-71.057v6.674h71.057v-6.674z" fill="#18A0FB"/>
</g>
<defs>
<clipPath id="a">
<rect width="711" height="624" fill="#fff"/>
</clipPath>
</defs>
</svg>
