<svg width="333" height="110" viewBox="0 0 333 110" fill="none" xmlns="http://www.w3.org/2000/svg">
<path d="M17.3 35C26.1366 35 33.3 27.165 33.3 17.5C33.3 7.83502 26.1366 0 17.3 0C8.46345 0 1.3 7.83502 1.3 17.5C1.3 27.165 8.46345 35 17.3 35Z" fill="#18A0FB"/>
<path d="M22.4902 28.1759C27.2734 25.1886 31.27 21.2169 33.6007 17.1345C35.9315 13.0521 36.4055 9.19347 34.9184 6.40744C34.8122 6.20844 34.8565 5.9263 35.0415 5.6231C35.2266 5.31989 35.5373 5.02046 35.9052 4.79066C36.2732 4.56087 36.6682 4.41954 37.0035 4.39776C37.3388 4.37599 37.5868 4.47556 37.693 4.67456C39.1801 7.46059 38.4138 11.5018 35.5627 15.9091C32.7116 20.3165 28.0093 24.729 22.4902 28.1759V28.1759Z" fill="#362F2F"><animateTransform attributeName="transform" type="rotate" from="360 0 0" to="0 0 0" dur="1s" repeatCount="indefinite"/></path>
<path d="M30.7564 9.00676C28.632 5.02672 25.133 2.12255 21.0292 0.933128C16.9253 -0.256293 12.5526 0.366469 8.87323 2.66441C5.19382 4.96236 2.50902 8.74725 1.40944 13.1865C0.309858 17.6257 0.88558 22.3555 3.00995 26.3356L30.7564 9.00676Z" fill="#18A0FB"/>
<path d="M23.5781 109H14.5781V40.75H23.5781V109ZM42.9844 109V64.9844H34.9688V58.2812H42.9844V53.0781C42.9844 47.6406 44.4375 43.4375 47.3438 40.4688C50.25 37.5 54.3594 36.0156 59.6719 36.0156C61.6719 36.0156 63.6562 36.2812 65.625 36.8125L65.1562 43.8438C63.6875 43.5625 62.125 43.4219 60.4688 43.4219C57.6562 43.4219 55.4844 44.25 53.9531 45.9062C52.4219 47.5312 51.6562 49.875 51.6562 52.9375V58.2812H62.4844V64.9844H51.6562V109H42.9844ZM83.8594 46V58.2812H93.3281V64.9844H83.8594V96.4375C83.8594 98.4688 84.2812 100 85.125 101.031C85.9688 102.031 87.4062 102.531 89.4375 102.531C90.4375 102.531 91.8125 102.344 93.5625 101.969V109C91.2812 109.625 89.0625 109.938 86.9062 109.938C83.0312 109.938 80.1094 108.766 78.1406 106.422C76.1719 104.078 75.1875 100.75 75.1875 96.4375V64.9844H65.9531V58.2812H75.1875V46H83.8594ZM124.547 109.938C117.672 109.938 112.078 107.688 107.766 103.188C103.453 98.6562 101.297 92.6094 101.297 85.0469V83.4531C101.297 78.4219 102.25 73.9375 104.156 70C106.094 66.0312 108.781 62.9375 112.219 60.7188C115.688 58.4688 119.438 57.3438 123.469 57.3438C130.062 57.3438 135.188 59.5156 138.844 63.8594C142.5 68.2031 144.328 74.4219 144.328 82.5156V86.125H109.969C110.094 91.125 111.547 95.1719 114.328 98.2656C117.141 101.328 120.703 102.859 125.016 102.859C128.078 102.859 130.672 102.234 132.797 100.984C134.922 99.7344 136.781 98.0781 138.375 96.0156L143.672 100.141C139.422 106.672 133.047 109.938 124.547 109.938ZM123.469 64.4688C119.969 64.4688 117.031 65.75 114.656 68.3125C112.281 70.8438 110.812 74.4062 110.25 79H135.656V78.3438C135.406 73.9375 134.219 70.5312 132.094 68.125C129.969 65.6875 127.094 64.4688 123.469 64.4688Z" fill="#362F2F"/>
<path d="M168.562 85.5156L163.125 91.1875V109H154.453V37H163.125V80.5469L167.766 74.9688L183.562 58.2812H194.109L174.375 79.4688L196.406 109H186.234L168.562 85.5156ZM211.734 64.4219C215.578 59.7031 220.578 57.3438 226.734 57.3438C237.453 57.3438 242.859 63.3906 242.953 75.4844V109H234.281V75.4375C234.25 71.7812 233.406 69.0781 231.75 67.3281C230.125 65.5781 227.578 64.7031 224.109 64.7031C221.297 64.7031 218.828 65.4531 216.703 66.9531C214.578 68.4531 212.922 70.4219 211.734 72.8594V109H203.062V37H211.734V64.4219ZM287.25 109C286.75 108 286.344 106.219 286.031 103.656C282 107.844 277.188 109.938 271.594 109.938C266.594 109.938 262.484 108.531 259.266 105.719C256.078 102.875 254.484 99.2812 254.484 94.9375C254.484 89.6562 256.484 85.5625 260.484 82.6562C264.516 79.7188 270.172 78.25 277.453 78.25H285.891V74.2656C285.891 71.2344 284.984 68.8281 283.172 67.0469C281.359 65.2344 278.688 64.3281 275.156 64.3281C272.062 64.3281 269.469 65.1094 267.375 66.6719C265.281 68.2344 264.234 70.125 264.234 72.3438H255.516C255.516 69.8125 256.406 67.375 258.188 65.0312C260 62.6562 262.438 60.7812 265.5 59.4062C268.594 58.0312 271.984 57.3438 275.672 57.3438C281.516 57.3438 286.094 58.8125 289.406 61.75C292.719 64.6562 294.438 68.6719 294.562 73.7969V97.1406C294.562 101.797 295.156 105.5 296.344 108.25V109H287.25ZM272.859 102.391C275.578 102.391 278.156 101.688 280.594 100.281C283.031 98.875 284.797 97.0469 285.891 94.7969V84.3906H279.094C268.469 84.3906 263.156 87.5 263.156 93.7188C263.156 96.4375 264.062 98.5625 265.875 100.094C267.688 101.625 270.016 102.391 272.859 102.391ZM332.672 66.0625C331.359 65.8438 329.938 65.7344 328.406 65.7344C322.719 65.7344 318.859 68.1562 316.828 73V109H308.156V58.2812H316.594L316.734 64.1406C319.578 59.6094 323.609 57.3438 328.828 57.3438C330.516 57.3438 331.797 57.5625 332.672 58V66.0625Z" fill="#18A0FB"/>
</svg>